<svg xmlns="http://www.w3.org/2000/svg" width="64" height="64" shape-rendering="geometricPrecision" text-rendering="geometricPrecision" image-rendering="optimizeQuality" fill-rule="evenodd" clip-rule="evenodd" viewBox="0 0 640 640"><path d="M579.999 0H60C27 0 0 27 0 60v520c0 33 27 60 60 60h519.999c33 0 60-27 60-60V60c0-33-27-60-60-60zM463.6 172.384V88.029h-84.344l-8.445 8.527-39.862 75.863-12.485 8.434H176.387V296.65h78.108l6.992 8.433-85.064 162.533v84.355l84.343-.024 8.434-8.527 39.862-75.84 12.496-8.445 142.065.012V343.35h-78.107l-6.992-8.528L463.6 172.383z"/></svg>